<mxfile host="Electron" agent="Mozilla/5.0 (Windows NT 10.0; Win64; x64) AppleWebKit/537.36 (KHTML, like Gecko) draw.io/28.0.6 Chrome/138.0.7204.100 Electron/37.2.3 Safari/537.36" version="28.0.6">
  <diagram name="第 1 页" id="Kspl7rNnK7DPbzDC0AIy">
    <mxGraphModel dx="786" dy="482" grid="0" gridSize="10" guides="1" tooltips="1" connect="1" arrows="1" fold="1" page="0" pageScale="1" pageWidth="827" pageHeight="1169" math="0" shadow="0">
      <root>
        <mxCell id="0" />
        <mxCell id="1" parent="0" />
        <mxCell id="o5IlpfT2biQauGZG_9Kk-21" value="Wrapper" style="rounded=0;whiteSpace=wrap;html=1;align=center;verticalAlign=top;fontSize=24;fontStyle=1;strokeColor=#666666;fillColor=#f5f5f5;fontColor=#333333;" parent="1" vertex="1">
          <mxGeometry x="30" y="80" width="700" height="480" as="geometry" />
        </mxCell>
        <mxCell id="o5IlpfT2biQauGZG_9Kk-15" value="" style="group" parent="1" vertex="1" connectable="0">
          <mxGeometry x="40" y="160" width="200" height="120" as="geometry" />
        </mxCell>
        <mxCell id="o5IlpfT2biQauGZG_9Kk-10" value="&lt;span style=&quot;font-size: 24px; font-weight: 700; text-wrap-mode: nowrap;&quot;&gt;LGPL C# source&lt;/span&gt;" style="rounded=0;whiteSpace=wrap;html=1;strokeColor=#b85450;align=center;verticalAlign=middle;fontFamily=Helvetica;fontSize=14;fillColor=#f8cecc;" parent="o5IlpfT2biQauGZG_9Kk-15" vertex="1">
          <mxGeometry width="200" height="40" as="geometry" />
        </mxCell>
        <mxCell id="o5IlpfT2biQauGZG_9Kk-1" value="&lt;font face=&quot;Lucida Console&quot;&gt;EPPlus-4.5.3 solution&lt;/font&gt;&lt;div&gt;&lt;font face=&quot;Lucida Console&quot;&gt;-&lt;/font&gt;&lt;span style=&quot;background-color: transparent;&quot;&gt;&lt;font face=&quot;Lucida Console&quot;&gt;EPPlus project&lt;/font&gt;&lt;/span&gt;&lt;/div&gt;&lt;div&gt;&lt;span style=&quot;background-color: transparent;&quot;&gt;&lt;font face=&quot;Lucida Console&quot;&gt;-&lt;/font&gt;&lt;/span&gt;&lt;span style=&quot;background-color: transparent;&quot;&gt;&lt;font face=&quot;Lucida Console&quot;&gt;EPPlusTest&amp;nbsp;&lt;/font&gt;&lt;/span&gt;&lt;span style=&quot;font-family: &amp;quot;Lucida Console&amp;quot;; background-color: transparent; color: light-dark(rgb(0, 0, 0), rgb(255, 255, 255));&quot;&gt;project&lt;/span&gt;&lt;/div&gt;&lt;div&gt;&lt;span style=&quot;background-color: transparent;&quot;&gt;&lt;font face=&quot;Lucida Console&quot;&gt;-...&lt;/font&gt;&lt;/span&gt;&lt;/div&gt;" style="rounded=0;whiteSpace=wrap;html=1;align=left;fillColor=#f8cecc;strokeColor=#b85450;fontSize=14;" parent="o5IlpfT2biQauGZG_9Kk-15" vertex="1">
          <mxGeometry y="40" width="200" height="80" as="geometry" />
        </mxCell>
        <mxCell id="o5IlpfT2biQauGZG_9Kk-16" value="" style="group" parent="1" vertex="1" connectable="0">
          <mxGeometry x="40" y="360" width="200" height="120" as="geometry" />
        </mxCell>
        <mxCell id="o5IlpfT2biQauGZG_9Kk-11" value="&lt;span style=&quot;font-size: 24px; font-weight: 700; text-align: left; text-wrap-mode: nowrap;&quot;&gt;Exporter source&lt;/span&gt;" style="rounded=0;whiteSpace=wrap;html=1;strokeColor=#6c8ebf;align=center;verticalAlign=middle;fontFamily=Helvetica;fontSize=14;fillColor=#dae8fc;" parent="o5IlpfT2biQauGZG_9Kk-16" vertex="1">
          <mxGeometry width="200" height="40" as="geometry" />
        </mxCell>
        <mxCell id="o5IlpfT2biQauGZG_9Kk-12" value="&lt;font style=&quot;color: rgb(51, 51, 51);&quot; face=&quot;Lucida Console&quot;&gt;EPPlusExporter project&lt;/font&gt;&lt;div style=&quot;color: rgb(51, 51, 51);&quot;&gt;&lt;font face=&quot;Lucida Console&quot;&gt;-aot script&lt;/font&gt;&lt;/div&gt;&lt;div&gt;&lt;font style=&quot;&quot; face=&quot;Lucida Console&quot;&gt;&lt;font color=&quot;#333333&quot;&gt;-&lt;/font&gt;&lt;font style=&quot;color: light-dark(rgb(51, 51, 51), rgb(255, 0, 0));&quot;&gt;interface class define&lt;/font&gt;&lt;/font&gt;&lt;/div&gt;" style="rounded=0;whiteSpace=wrap;html=1;align=left;fillColor=#dae8fc;strokeColor=#6c8ebf;fontSize=14;" parent="o5IlpfT2biQauGZG_9Kk-16" vertex="1">
          <mxGeometry y="40" width="200" height="80" as="geometry" />
        </mxCell>
        <mxCell id="o5IlpfT2biQauGZG_9Kk-18" value="" style="shape=cross;whiteSpace=wrap;html=1;fillColor=#d5e8d4;strokeColor=#82b366;" parent="1" vertex="1">
          <mxGeometry x="110" y="290" width="60" height="60" as="geometry" />
        </mxCell>
        <mxCell id="o5IlpfT2biQauGZG_9Kk-20" value="NativeAOT Compile" style="shape=singleArrow;whiteSpace=wrap;html=1;fillColor=#d5e8d4;strokeColor=#82b366;fontSize=14;align=left;fontStyle=1;labelBackgroundColor=none;labelBorderColor=none;verticalAlign=middle;" parent="1" vertex="1">
          <mxGeometry x="180" y="295" width="90" height="50" as="geometry" />
        </mxCell>
        <mxCell id="o5IlpfT2biQauGZG_9Kk-22" value="" style="group;fillColor=#fff2cc;strokeColor=#d6b656;" parent="1" vertex="1" connectable="0">
          <mxGeometry x="520" y="110" width="200" height="120" as="geometry" />
        </mxCell>
        <mxCell id="o5IlpfT2biQauGZG_9Kk-23" value="&lt;div style=&quot;text-align: left;&quot;&gt;&lt;span style=&quot;background-color: transparent; color: light-dark(rgb(0, 0, 0), rgb(255, 255, 255)); text-wrap-mode: nowrap;&quot;&gt;&lt;b style=&quot;&quot;&gt;&lt;font style=&quot;font-size: 20px;&quot;&gt;ForNet C# source&lt;/font&gt;&lt;/b&gt;&lt;/span&gt;&lt;/div&gt;" style="rounded=0;whiteSpace=wrap;html=1;strokeColor=#d79b00;align=center;verticalAlign=middle;fontFamily=Helvetica;fontSize=14;fillColor=#ffe6cc;" parent="o5IlpfT2biQauGZG_9Kk-22" vertex="1">
          <mxGeometry width="200" height="40" as="geometry" />
        </mxCell>
        <mxCell id="o5IlpfT2biQauGZG_9Kk-24" value="&lt;font style=&quot;color: rgb(51, 51, 51);&quot; face=&quot;Lucida Console&quot;&gt;ForNet project&lt;/font&gt;&lt;div style=&quot;color: rgb(51, 51, 51);&quot;&gt;&lt;font face=&quot;Lucida Console&quot;&gt;-lib load&amp;nbsp;&lt;/font&gt;&lt;/div&gt;&lt;div&gt;&lt;font style=&quot;&quot; face=&quot;Lucida Console&quot;&gt;&lt;font color=&quot;#333333&quot;&gt;-&lt;/font&gt;&lt;font style=&quot;color: light-dark(rgb(51, 51, 51), rgb(255, 0, 0));&quot;&gt;interface class define&lt;/font&gt;&lt;/font&gt;&lt;/div&gt;" style="rounded=0;whiteSpace=wrap;html=1;align=left;fillColor=#ffe6cc;strokeColor=#d79b00;fontSize=14;" parent="o5IlpfT2biQauGZG_9Kk-22" vertex="1">
          <mxGeometry y="40" width="200" height="80" as="geometry" />
        </mxCell>
        <mxCell id="o5IlpfT2biQauGZG_9Kk-26" value="" style="shape=flexArrow;endArrow=classic;html=1;rounded=0;entryX=-0.002;entryY=0.342;entryDx=0;entryDy=0;entryPerimeter=0;fillColor=#fff2cc;strokeColor=#d6b656;exitX=0.976;exitY=0.378;exitDx=0;exitDy=0;exitPerimeter=0;" parent="1" source="o5IlpfT2biQauGZG_9Kk-13" target="o5IlpfT2biQauGZG_9Kk-24" edge="1">
          <mxGeometry width="50" height="50" relative="1" as="geometry">
            <mxPoint x="450" y="315" as="sourcePoint" />
            <mxPoint x="500" y="265" as="targetPoint" />
          </mxGeometry>
        </mxCell>
        <mxCell id="o5IlpfT2biQauGZG_9Kk-27" value="" style="group;fillColor=#e1d5e7;strokeColor=#9673a6;container=0;" parent="1" vertex="1" connectable="0">
          <mxGeometry x="520" y="265" width="200" height="120" as="geometry" />
        </mxCell>
        <mxCell id="o5IlpfT2biQauGZG_9Kk-30" value="" style="group;fillColor=#f5f5f5;strokeColor=#666666;fontColor=#333333;container=0;" parent="1" vertex="1" connectable="0">
          <mxGeometry x="520" y="420" width="200" height="120" as="geometry" />
        </mxCell>
        <mxCell id="o5IlpfT2biQauGZG_9Kk-33" value="" style="shape=flexArrow;endArrow=classic;html=1;rounded=0;entryX=0;entryY=0.25;entryDx=0;entryDy=0;fillColor=#e1d5e7;strokeColor=#9673a6;exitX=0.998;exitY=0.592;exitDx=0;exitDy=0;exitPerimeter=0;" parent="1" source="o5IlpfT2biQauGZG_9Kk-13" target="o5IlpfT2biQauGZG_9Kk-29" edge="1">
          <mxGeometry width="50" height="50" relative="1" as="geometry">
            <mxPoint x="780" y="408" as="sourcePoint" />
            <mxPoint x="850" y="270" as="targetPoint" />
          </mxGeometry>
        </mxCell>
        <mxCell id="o5IlpfT2biQauGZG_9Kk-34" value="" style="shape=flexArrow;endArrow=classic;html=1;rounded=0;entryX=0;entryY=0.25;entryDx=0;entryDy=0;fillColor=light-dark(#1BA1E2,#1BAFF7);strokeColor=#006EAF;exitX=0.988;exitY=0.891;exitDx=0;exitDy=0;exitPerimeter=0;" parent="1" source="o5IlpfT2biQauGZG_9Kk-13" target="o5IlpfT2biQauGZG_9Kk-32" edge="1">
          <mxGeometry width="50" height="50" relative="1" as="geometry">
            <mxPoint x="870" y="458" as="sourcePoint" />
            <mxPoint x="940" y="320" as="targetPoint" />
          </mxGeometry>
        </mxCell>
        <mxCell id="o5IlpfT2biQauGZG_9Kk-41" value="&lt;div style=&quot;text-align: left;&quot;&gt;&lt;span style=&quot;background-color: transparent; color: light-dark(rgb(0, 0, 0), rgb(255, 255, 255)); text-wrap-mode: nowrap;&quot;&gt;&lt;b style=&quot;&quot;&gt;&lt;font style=&quot;font-size: 20px;&quot;&gt;C++ Native App&lt;/font&gt;&lt;/b&gt;&lt;/span&gt;&lt;/div&gt;" style="rounded=0;whiteSpace=wrap;html=1;strokeColor=#9673a6;align=center;verticalAlign=middle;fontFamily=Helvetica;fontSize=14;fillColor=#e1d5e7;fontColor=default;" parent="1" vertex="1">
          <mxGeometry x="760" y="305" width="186" height="40" as="geometry" />
        </mxCell>
        <mxCell id="o5IlpfT2biQauGZG_9Kk-42" value="&lt;div style=&quot;text-align: left;&quot;&gt;&lt;span style=&quot;background-color: transparent; color: light-dark(rgb(0, 0, 0), rgb(255, 255, 255)); text-wrap-mode: nowrap;&quot;&gt;&lt;b style=&quot;&quot;&gt;&lt;font style=&quot;font-size: 20px;&quot;&gt;Other App&lt;/font&gt;&lt;/b&gt;&lt;/span&gt;&lt;/div&gt;" style="rounded=0;whiteSpace=wrap;html=1;strokeColor=#006EAF;align=center;verticalAlign=middle;fontFamily=Helvetica;fontSize=14;fillColor=light-dark(#1BA1E2,#1BAFF7);fontColor=#ffffff;" parent="1" vertex="1">
          <mxGeometry x="760" y="460" width="185" height="40" as="geometry" />
        </mxCell>
        <mxCell id="o5IlpfT2biQauGZG_9Kk-44" value="" style="shape=flexArrow;endArrow=classic;html=1;rounded=0;exitX=1;exitY=0.375;exitDx=0;exitDy=0;exitPerimeter=0;entryX=0;entryY=0.5;entryDx=0;entryDy=0;fillColor=#e1d5e7;strokeColor=#9673a6;" parent="1" edge="1">
          <mxGeometry width="50" height="50" relative="1" as="geometry">
            <mxPoint x="720" y="324.58" as="sourcePoint" />
            <mxPoint x="760" y="324.58" as="targetPoint" />
          </mxGeometry>
        </mxCell>
        <mxCell id="o5IlpfT2biQauGZG_9Kk-45" value="" style="shape=flexArrow;endArrow=classic;html=1;rounded=0;exitX=1;exitY=0.375;exitDx=0;exitDy=0;exitPerimeter=0;entryX=0;entryY=0.5;entryDx=0;entryDy=0;fillColor=light-dark(#1BA1E2,#1BAFF7);strokeColor=#006EAF;" parent="1" edge="1">
          <mxGeometry width="50" height="50" relative="1" as="geometry">
            <mxPoint x="720" y="479.58000000000004" as="sourcePoint" />
            <mxPoint x="760" y="479.58000000000004" as="targetPoint" />
          </mxGeometry>
        </mxCell>
        <mxCell id="o5IlpfT2biQauGZG_9Kk-13" value="EPPlus4.NativeAOT-xx.dll" style="shape=note;whiteSpace=wrap;html=1;backgroundOutline=1;darkOpacity=0.05;fontSize=14;align=center;fillColor=#dae8fc;strokeColor=#6c8ebf;verticalAlign=middle;" parent="1" vertex="1">
          <mxGeometry x="280" y="280" width="160" height="80" as="geometry" />
        </mxCell>
        <mxCell id="KEiIe-eRkhC-gAfAzJan-1" value="&lt;div style=&quot;text-align: left;&quot;&gt;&lt;span style=&quot;background-color: transparent; color: light-dark(rgb(0, 0, 0), rgb(255, 255, 255)); text-wrap-mode: nowrap;&quot;&gt;&lt;b style=&quot;&quot;&gt;&lt;font style=&quot;font-size: 20px;&quot;&gt;C# NativeAOT App&lt;/font&gt;&lt;/b&gt;&lt;/span&gt;&lt;/div&gt;" style="rounded=0;whiteSpace=wrap;html=1;strokeColor=#d79b00;align=center;verticalAlign=middle;fontFamily=Helvetica;fontSize=14;fillColor=#ffe6cc;" parent="1" vertex="1">
          <mxGeometry x="758" y="170" width="185" height="40" as="geometry" />
        </mxCell>
        <mxCell id="KEiIe-eRkhC-gAfAzJan-2" value="" style="shape=flexArrow;endArrow=classic;html=1;rounded=0;exitX=1;exitY=0.5;exitDx=0;exitDy=0;entryX=0;entryY=0.5;entryDx=0;entryDy=0;fillColor=#ffe6cc;strokeColor=#d79b00;" parent="1" source="o5IlpfT2biQauGZG_9Kk-24" target="KEiIe-eRkhC-gAfAzJan-1" edge="1">
          <mxGeometry width="50" height="50" relative="1" as="geometry">
            <mxPoint x="767" y="247" as="sourcePoint" />
            <mxPoint x="807" y="209" as="targetPoint" />
          </mxGeometry>
        </mxCell>
        <mxCell id="cQudWsf6Mx6CTaRt5Js4-1" value="1" style="ellipse;whiteSpace=wrap;html=1;fontStyle=1;fontSize=24;fillColor=#ffe6cc;strokeColor=#d79b00;" vertex="1" parent="1">
          <mxGeometry x="964" y="167.5" width="45" height="45" as="geometry" />
        </mxCell>
        <mxCell id="cQudWsf6Mx6CTaRt5Js4-2" value="" style="group" vertex="1" connectable="0" parent="1">
          <mxGeometry x="520" y="265" width="200" height="120" as="geometry" />
        </mxCell>
        <mxCell id="o5IlpfT2biQauGZG_9Kk-28" value="&lt;div style=&quot;text-align: left;&quot;&gt;&lt;span style=&quot;background-color: transparent; color: light-dark(rgb(0, 0, 0), rgb(255, 255, 255)); text-wrap-mode: nowrap;&quot;&gt;&lt;b style=&quot;&quot;&gt;&lt;font style=&quot;font-size: 20px;&quot;&gt;ForC c/cpp source&lt;/font&gt;&lt;/b&gt;&lt;/span&gt;&lt;/div&gt;" style="rounded=0;whiteSpace=wrap;html=1;strokeColor=#9673a6;align=center;verticalAlign=middle;fontFamily=Helvetica;fontSize=14;fillColor=#e1d5e7;" parent="cQudWsf6Mx6CTaRt5Js4-2" vertex="1">
          <mxGeometry width="200" height="40" as="geometry" />
        </mxCell>
        <mxCell id="o5IlpfT2biQauGZG_9Kk-29" value="&lt;font style=&quot;color: rgb(51, 51, 51);&quot; face=&quot;Lucida Console&quot;&gt;ForC project&lt;/font&gt;&lt;div style=&quot;color: rgb(51, 51, 51);&quot;&gt;&lt;font face=&quot;Lucida Console&quot;&gt;-lib load&amp;nbsp;&lt;/font&gt;&lt;/div&gt;&lt;div&gt;&lt;font style=&quot;&quot; face=&quot;Lucida Console&quot;&gt;&lt;font color=&quot;#333333&quot;&gt;-&lt;/font&gt;&lt;font style=&quot;color: light-dark(rgb(51, 51, 51), rgb(255, 0, 0));&quot;&gt;interface class define&lt;/font&gt;&lt;/font&gt;&lt;/div&gt;" style="rounded=0;whiteSpace=wrap;html=1;align=left;fillColor=#e1d5e7;strokeColor=#9673a6;fontSize=14;" parent="cQudWsf6Mx6CTaRt5Js4-2" vertex="1">
          <mxGeometry y="40" width="200" height="80" as="geometry" />
        </mxCell>
        <mxCell id="cQudWsf6Mx6CTaRt5Js4-4" value="2" style="ellipse;whiteSpace=wrap;html=1;fontStyle=1;fontSize=24;fillColor=#e1d5e7;strokeColor=#9673a6;" vertex="1" parent="1">
          <mxGeometry x="964" y="302.5" width="45" height="45" as="geometry" />
        </mxCell>
        <mxCell id="cQudWsf6Mx6CTaRt5Js4-5" value="3" style="ellipse;whiteSpace=wrap;html=1;fontStyle=1;fontSize=24;fillColor=light-dark(#1BA1E2,#1BAFF7);strokeColor=#006EAF;fontColor=#ffffff;" vertex="1" parent="1">
          <mxGeometry x="964" y="455" width="45" height="45" as="geometry" />
        </mxCell>
        <mxCell id="o5IlpfT2biQauGZG_9Kk-31" value="&lt;div style=&quot;text-align: left;&quot;&gt;&lt;span style=&quot;background-color: transparent; color: light-dark(rgb(0, 0, 0), rgb(255, 255, 255)); text-wrap-mode: nowrap;&quot;&gt;&lt;b style=&quot;&quot;&gt;&lt;font style=&quot;font-size: 20px;&quot;&gt;ForOther source&lt;/font&gt;&lt;/b&gt;&lt;/span&gt;&lt;/div&gt;" style="rounded=0;whiteSpace=wrap;html=1;strokeColor=#006EAF;align=center;verticalAlign=middle;fontFamily=Helvetica;fontSize=14;fillColor=light-dark(#1BA1E2,#1BAFF7);fontColor=#ffffff;" parent="1" vertex="1">
          <mxGeometry x="520" y="420" width="200" height="40" as="geometry" />
        </mxCell>
        <mxCell id="o5IlpfT2biQauGZG_9Kk-32" value="&lt;font style=&quot;color: rgb(51, 51, 51);&quot; face=&quot;Lucida Console&quot;&gt;ForOther project&lt;/font&gt;&lt;div style=&quot;color: rgb(51, 51, 51);&quot;&gt;&lt;font face=&quot;Lucida Console&quot;&gt;-lib load&amp;nbsp;&lt;/font&gt;&lt;/div&gt;&lt;div&gt;&lt;font style=&quot;&quot; face=&quot;Lucida Console&quot;&gt;&lt;font color=&quot;#333333&quot;&gt;-&lt;/font&gt;&lt;font style=&quot;color: light-dark(rgb(51, 51, 51), rgb(255, 0, 0));&quot;&gt;interface class define&lt;/font&gt;&lt;/font&gt;&lt;/div&gt;" style="rounded=0;whiteSpace=wrap;html=1;align=left;fillColor=light-dark(#1BA1E2,#1BAFF7);strokeColor=#006EAF;fontSize=14;fontColor=#ffffff;" parent="1" vertex="1">
          <mxGeometry x="520" y="460" width="200" height="80" as="geometry" />
        </mxCell>
      </root>
    </mxGraphModel>
  </diagram>
</mxfile>
